<?xml version="1.0" standalone="no"?>
<!DOCTYPE svg PUBLIC "-//W3C//DTD SVG 20010904//EN"
 "http://www.w3.org/TR/2001/REC-SVG-20010904/DTD/svg10.dtd">
<svg version="1.0" xmlns="http://www.w3.org/2000/svg"
 width="300.000000pt" height="300.000000pt" viewBox="0 0 300.000000 300.000000"
 preserveAspectRatio="xMidYMid meet">
<metadata>
Created by potrace 1.10, written by Peter Selinger 2001-2011
</metadata>
<g transform="translate(0.000000,300.000000) scale(0.100000,-0.100000)"
fill="#000000" stroke="none">
<path d="M1718 1738 c-42 -11 -49 -23 -18 -31 20 -5 21 -12 20 -199 0 -106 -1
-197 0 -202 0 -5 8 -2 18 7 15 13 20 14 42 2 59 -33 143 -6 177 57 10 20 17
56 17 90 1 68 -22 106 -76 126 -31 12 -40 11 -74 -4 -21 -10 -41 -19 -44 -21
-3 -2 -4 40 -2 92 4 104 6 101 -60 83z m172 -205 c19 -24 21 -38 18 -100 -4
-79 -23 -113 -65 -113 -56 0 -63 12 -63 118 0 109 6 122 56 122 24 0 39 -8 54
-27z"/>
<path d="M2048 1738 c-40 -11 -51 -28 -18 -28 19 0 20 -7 20 -190 0 -159 -2
-190 -14 -190 -8 0 -18 -4 -21 -10 -4 -6 20 -10 64 -10 41 0 71 4 71 10 0 6
-9 10 -20 10 -19 0 -20 7 -20 210 0 162 -3 210 -12 209 -7 -1 -30 -6 -50 -11z"/>
<path d="M1560 1715 c-26 -31 13 -82 44 -56 19 16 21 42 4 59 -16 16 -33 15
-48 -3z"/>
<path d="M580 1710 c0 -5 11 -10 25 -10 l25 0 0 -185 c0 -176 -1 -185 -19
-185 -11 0 -23 -4 -26 -10 -4 -6 46 -10 143 -10 167 0 162 -2 162 71 0 46 -16
52 -25 9 -11 -49 -29 -60 -103 -60 l-67 0 3 185 3 185 24 0 c14 0 25 5 25 10
0 6 -35 10 -85 10 -50 0 -85 -4 -85 -10z"/>
<path d="M590 1509 c0 -111 3 -168 10 -164 6 4 10 72 10 171 0 103 -4 164 -10
164 -6 0 -10 -64 -10 -171z"/>
<path d="M557 1653 c-3 -5 1 -80 8 -168 l13 -160 0 168 c0 146 -5 187 -21 160z"/>
<path d="M1450 1613 c-8 -3 -20 -12 -26 -19 -10 -12 -19 -12 -55 -3 -36 10
-51 9 -81 -4 -67 -28 -86 -110 -35 -158 l21 -19 -22 -16 c-26 -18 -30 -71 -7
-80 21 -8 19 -21 -5 -27 -11 -3 -25 -17 -31 -31 -10 -22 -9 -29 6 -46 37 -41
134 -51 202 -21 63 29 82 85 45 131 -15 19 -32 23 -103 29 -75 5 -84 8 -84 26
0 17 8 21 57 25 75 7 111 39 111 99 0 22 -6 47 -12 55 -16 19 2 30 28 17 26
-14 50 11 31 34 -13 16 -16 17 -40 8z m-80 -48 c7 -8 13 -38 13 -66 1 -42 -3
-55 -21 -69 -12 -10 -31 -16 -42 -13 -37 10 -49 111 -17 151 13 17 52 15 67
-3z m61 -291 c6 -7 9 -25 5 -38 -11 -46 -113 -62 -160 -25 -29 23 -32 36 -12
64 12 17 23 20 84 17 45 -2 75 -9 83 -18z"/>
<path d="M1000 1582 c-74 -37 -102 -133 -62 -212 36 -73 143 -91 203 -34 16
15 29 34 29 41 0 18 -6 16 -34 -12 -61 -61 -156 -3 -156 94 0 3 43 6 95 6 93
0 95 1 95 23 0 39 -29 83 -65 98 -45 18 -63 18 -105 -4z m76 -10 c16 -11 34
-48 34 -71 0 -19 -6 -21 -66 -21 -56 0 -65 2 -60 16 3 9 6 19 6 23 0 5 9 20
21 35 20 26 44 33 65 18z"/>
<path d="M2270 1582 c-102 -51 -109 -216 -11 -267 59 -30 143 -8 171 45 17 32
6 35 -23 6 -46 -46 -118 -31 -143 29 -28 68 -25 70 81 67 l95 -3 0 26 c0 41
-26 81 -64 99 -43 20 -63 20 -106 -2z m77 -10 c13 -8 33 -55 33 -78 0 -11 -15
-14 -65 -14 -69 0 -71 2 -55 47 17 45 56 65 87 45z"/>
<path d="M1552 1580 c-44 -10 -48 -16 -17 -24 25 -6 25 -7 25 -116 0 -103 -1
-110 -20 -110 -11 0 -20 -4 -20 -10 0 -6 30 -10 71 -10 44 0 68 4 64 10 -3 6
-13 10 -21 10 -11 0 -14 23 -14 130 0 144 4 137 -68 120z"/>
<path d="M635 1280 c21 -5 24 -8 10 -10 -11 -1 23 -14 75 -29 52 -15 105 -31
118 -35 17 -6 22 -4 22 11 0 16 -15 21 -97 35 l-98 17 75 -5 c41 -2 92 -7 112
-10 32 -6 36 -4 32 12 -5 17 -17 19 -142 20 -76 1 -124 -2 -107 -6z"/>
</g>
</svg>
